<svg width="50" height="165" viewBox="0 0 50 165" fill="none" xmlns="http://www.w3.org/2000/svg">
<g filter="url(#filter0_i_10_1620)">
<path d="M15 162.008C15 159.457 16.0829 157.025 17.9793 155.319L25 149L32.0207 155.319C33.9171 157.025 35 159.457 35 162.008V163H15V162.008Z" fill="#666666"/>
<path d="M25 149L17.9793 155.319C16.0829 157.025 15 159.457 15 162.008V163H35V162.008C35 159.457 33.9171 157.025 32.0207 155.319L25 149ZM25 149V48" stroke="black" stroke-width="4"/>
<path d="M33 66H35H37V73H33V66Z" fill="#666666"/>
<path d="M35 48V66M35 66H33V73H37V66H35Z" stroke="black" stroke-width="2"/>
<path d="M11 2H39L47 48H3L11 2Z" fill="#828282" stroke="black" stroke-width="4"/>
</g>
<defs>
<filter id="filter0_i_10_1620" x="0" y="0" width="50" height="169" filterUnits="userSpaceOnUse" color-interpolation-filters="sRGB">
<feFlood flood-opacity="0" result="BackgroundImageFix"/>
<feBlend mode="normal" in="SourceGraphic" in2="BackgroundImageFix" result="shape"/>
<feColorMatrix in="SourceAlpha" type="matrix" values="0 0 0 0 0 0 0 0 0 0 0 0 0 0 0 0 0 0 127 0" result="hardAlpha"/>
<feOffset dy="4"/>
<feGaussianBlur stdDeviation="2"/>
<feComposite in2="hardAlpha" operator="arithmetic" k2="-1" k3="1"/>
<feColorMatrix type="matrix" values="0 0 0 0 0 0 0 0 0 0 0 0 0 0 0 0 0 0 0.25 0"/>
<feBlend mode="normal" in2="shape" result="effect1_innerShadow_10_1620"/>
</filter>
</defs>
</svg>
