<svg xmlns="http://www.w3.org/2000/svg" xmlns:xlink="http://www.w3.org/1999/xlink" width="160" height="160" viewBox="0 0 160 160"><defs><clipPath id="a"><rect width="52.456" height="59.913" fill="none"/></clipPath></defs><rect width="160" height="160" rx="80" fill="#fff"/><g transform="translate(53.772 50.045)"><g clip-path="url(#a)"><path d="M40.924,13.74a3.99,3.99,0,0,1-4.187-3.747V0H4.184A4,4,0,0,0,0,3.747V56.141a4,4,0,0,0,4.184,3.747l42.764.025h.013a5.881,5.881,0,0,0,4.122-1.636,4.559,4.559,0,0,0,1.373-3.222V13.741ZM9.993,34.954H28.728v2.5H9.993ZM28.728,48.693h-5.62l-3.372,4.5a1.211,1.211,0,0,1-1.111.5,1.252,1.252,0,0,1-1-.686L15.9,49.552l-3.77,3.77a1.249,1.249,0,0,1-2-.324l-2.5-5a1.249,1.249,0,1,1,2.234-1.117l1.723,3.446,3.77-3.77a1.227,1.227,0,0,1,1.083-.35,1.251,1.251,0,0,1,.917.675l1.594,3.188,2.535-3.379a1.248,1.248,0,0,1,1-.5h6.245a1.249,1.249,0,1,1,0,2.5ZM44.964,29.958H9.993v-2.5H44.964Zm0-7.493H9.993v-2.5H44.964Z"/></g></g></svg>