<svg id="Composant_30_1" data-name="Composant 30 – 1" xmlns="http://www.w3.org/2000/svg" xmlns:xlink="http://www.w3.org/1999/xlink" width="158" height="153" viewBox="0 0 158 153">
  <defs>
    <clipPath id="clip-path">
      <rect id="Rectangle_4281" data-name="Rectangle 4281" width="100.903" height="89.99" fill="none"/>
    </clipPath>
  </defs>
  <g id="Ellipse_21" data-name="Ellipse 21" fill="#fff" stroke="#707070" stroke-width="1">
    <ellipse cx="79" cy="76.5" rx="79" ry="76.5" stroke="none"/>
    <ellipse cx="79" cy="76.5" rx="78.5" ry="76" fill="none"/>
  </g>
  <g id="Groupe_6347" data-name="Groupe 6347" transform="translate(28.549 31.505)">
    <g id="Groupe_6346" data-name="Groupe 6346" transform="translate(0 0)" clip-path="url(#clip-path)">
      <path id="Tracé_3512" data-name="Tracé 3512" d="M9.376,85.649,3.5,89.99,0,85.649l5.877-4.338c6.857-5.038,11.9-7,19.035-7,9.936,0,19.172,4.618,33.726,4.9l34.711-23.79c1.4-.982,1.959-1.822,1.959-2.8A3.167,3.167,0,0,0,92.089,49.4a4.474,4.474,0,0,0-2.659.98L73.894,60.737A8.692,8.692,0,0,1,65.5,66.2H45.2V60.6H65.5c2.379,0,3.222-.98,3.222-3.082S67.877,54.44,65.5,54.44H28.131c-9.516,0-13.437,1.259-20.014,6.44L3.5,64.518.14,60.04,4.758,56.4c7.7-6.02,13.3-7.56,23.51-7.56H65.5a8.9,8.9,0,0,1,8.256,5.178l13.3-8.816a7.714,7.714,0,0,1,4.755-1.539,8.89,8.89,0,0,1,9.1,9.1c0,2.8-1.539,5.175-5.6,7.974L60.32,84.95c-15.116,0-24.772-5.038-35.128-5.038-6.437,0-9.936,1.4-15.816,5.738m5.88-54.16a9.16,9.16,0,0,1,17.493,0h29.11a9.16,9.16,0,0,1,17.493,0h2.242c3.076,0,3.775-.56,3.775-2.939a18.53,18.53,0,0,0-2.1-7.137,6.423,6.423,0,0,0-4.341-2.8l-9.8-2.519c-3.638-.98-8.4-5.458-14.414-7.837C50.1,6.437,45.9,5.738,36.387,5.738A139.644,139.644,0,0,0,19.734,7L14.417,3.778l-.14-1.4C14.417,2.379,27.991,0,37.227,0c9.379,0,14.7.98,19.874,2.939C63.679,5.458,67.6,9.8,70.4,10.635l9.516,2.659c4.341,1.259,7,3.079,8.256,5.178A27.21,27.21,0,0,1,91.11,29.53c0,5.038-4.338,7.7-10.079,7.7H79.352a9.053,9.053,0,0,1-17.493,0H32.749a8.875,8.875,0,0,1-8.816,6.717,9.358,9.358,0,0,1-8.816-6.857h-.283c-5.458,0-11.2-3.359-11.2-10.5v-7c0-2.942.84-5.6,6.577-11.338l4.9,2.659c-5.041,5.458-6.02,6.577-6.02,9.376v5.74c0,3.5,1.682,5.458,5.738,5.458Zm12.875,2.939a4.124,4.124,0,0,0-4.2-4.2,4.069,4.069,0,0,0-3.921,4.2,3.984,3.984,0,0,0,3.921,4.2,4.043,4.043,0,0,0,4.2-4.2m46.6,0a4.121,4.121,0,0,0-4.2-4.2,4.067,4.067,0,0,0-3.921,4.2,3.982,3.982,0,0,0,3.921,4.2,4.041,4.041,0,0,0,4.2-4.2" transform="translate(0 0.001)"/>
    </g>
  </g>
</svg>
