<svg xmlns="http://www.w3.org/2000/svg" width="24.817" height="24.817" viewBox="0 0 24.817 24.817"><path d="M-6835.183,26.817H-6836a11.918,11.918,0,0,1-8.484-3.515A11.923,11.923,0,0,1-6848,14.816V14a11.92,11.92,0,0,1,3.515-8.485A11.919,11.919,0,0,1-6836,2h.818a12,12,0,0,1,9.059,4.13l-10.644,10.652-5.405-5.414-1.916,1.827,7.321,7.3L-6824.6,8.341A12.022,12.022,0,0,1-6823.183,14v.816A11.923,11.923,0,0,1-6826.7,23.3,11.92,11.92,0,0,1-6835.183,26.817Z" transform="translate(6848 -2)" fill="#fff"/></svg>