<svg id="Composant_28_1" data-name="Composant 28 – 1" xmlns="http://www.w3.org/2000/svg" xmlns:xlink="http://www.w3.org/1999/xlink" width="158" height="153" viewBox="0 0 158 153">
  <defs>
    <clipPath id="clip-path">
      <rect id="Rectangle_4280" data-name="Rectangle 4280" width="64.338" height="96.768" fill="#6b4747"/>
    </clipPath>
  </defs>
  <g id="Ellipse_17" data-name="Ellipse 17" fill="#fff" stroke="#707070" stroke-width="1">
    <ellipse cx="79" cy="76.5" rx="79" ry="76.5" stroke="none"/>
    <ellipse cx="79" cy="76.5" rx="78.5" ry="76" fill="none"/>
  </g>
  <g id="Groupe_6345" data-name="Groupe 6345" transform="translate(46.831 28.117)">
    <g id="Groupe_6344" data-name="Groupe 6344" transform="translate(0 0)" clip-path="url(#clip-path)">
      <path id="Tracé_3511" data-name="Tracé 3511" d="M32.169,79.524,4.5,96.765,0,94.966V9.135C0,2.959,2.959,0,9.135,0H55.2c6.176,0,9.135,2.959,9.135,9.135V94.966l-4.5,1.67Zm26.894,10.3V10.167c0-3.345-1.287-4.763-4.632-4.763H9.91c-3.345,0-4.635,1.418-4.635,4.763V89.82L32.169,73.088ZM43.878,57c-5.144-2.316-8.106-3.86-11.837-5.793-3.6,1.933-6.822,3.477-11.966,5.793l-2.319-1.415c.646-5.661,1.673-8.749,2.576-12.869-3.088-2.831-5.149-5.018-9.138-9.264l.515-2.959c5.535-1.029,8.752-1.544,12.869-1.93,1.93-3.989,3.731-7.463,6.562-12.481h2.187c2.833,5.018,4.632,8.492,6.562,12.481,3.989.386,7.079.9,12.612,1.93l.515,2.959c-3.86,4.117-6.176,6.433-9.264,9.264A105.7,105.7,0,0,1,46.2,55.589ZM23.935,49.8c3.989-1.933,6.047-3.217,8.235-4.5a88.368,88.368,0,0,0,7.98,4.372c-.772-3.989-1.161-6.3-1.673-8.621,3.345-3.085,5.018-4.761,7.074-6.819-4.372-.643-6.817-1.029-9.264-1.155a89.185,89.185,0,0,0-4.117-8.495c-1.158,2.316-2.187,4.375-3.989,8.495-2.7.126-5.018.512-9.393,1.155a77.873,77.873,0,0,0,6.691,6.819c-.515,2.319-.9,4.632-1.544,8.752" transform="translate(0 0.001)"/>
    </g>
  </g>
</svg>
