<svg id="Composant_31_1" data-name="Composant 31 – 1" xmlns="http://www.w3.org/2000/svg" xmlns:xlink="http://www.w3.org/1999/xlink" width="158" height="153" viewBox="0 0 158 153">
  <defs>
    <clipPath id="clip-path">
      <rect id="Rectangle_4278" data-name="Rectangle 4278" width="94.339" height="83.774" fill="none"/>
    </clipPath>
  </defs>
  <g id="Ellipse_22" data-name="Ellipse 22" fill="#fff" stroke="#707070" stroke-width="1">
    <ellipse cx="79" cy="76.5" rx="79" ry="76.5" stroke="none"/>
    <ellipse cx="79" cy="76.5" rx="78.5" ry="76" fill="none"/>
  </g>
  <g id="Groupe_6341" data-name="Groupe 6341" transform="translate(31.829 74.614)">
    <g id="Groupe_6340" data-name="Groupe 6340" transform="translate(0.001 -40)" clip-path="url(#clip-path)">
      <path id="Tracé_3509" data-name="Tracé 3509" d="M5.157,83.771H0V81.13c0-13.458,4.777-21.387,14.592-24.4-3.65-2.39-5.537-6.289-5.537-11.194,0-8.681,5.537-14.213,14.467-14.213s14.464,5.531,14.464,14.213c0,4.779-1.887,8.8-5.408,11.194,9.81,3.016,14.59,10.945,14.59,24.4v2.641H42.011V81.13c0-14.087-5.911-20.879-18.489-20.879-12.329,0-18.366,6.915-18.366,20.879Zm27.8-38.238c0-5.662-3.4-9.182-9.43-9.182s-9.436,3.519-9.436,9.182c0,6.16,3.4,9.685,9.436,9.685s9.43-3.524,9.43-9.685m18.492-3.65c-6.037-3.9-9.433-10.562-9.433-18.74C42.011,8.8,51.948,0,68.175,0c16.1,0,26.164,8.8,26.164,23.143,0,14.718-10.065,23.771-26.164,23.771a55.031,55.031,0,0,1-6.54-.5A119.925,119.925,0,0,1,52.2,54.84l-3.4-4.027a88.507,88.507,0,0,0,11.071-9.936,37.691,37.691,0,0,0,8.3,1.006c13.209,0,21-6.918,21-18.74,0-11.448-7.924-18.112-21-18.112-13.332,0-21.007,6.663-21.007,18.112,0,6.54,2.641,11.571,7.8,14.841a12.1,12.1,0,0,1-3.524,3.9" transform="translate(0 0.001)"/>
    </g>
  </g>
</svg>
