<svg id="Composant_29_1" data-name="Composant 29 – 1" xmlns="http://www.w3.org/2000/svg" xmlns:xlink="http://www.w3.org/1999/xlink" width="158" height="153" viewBox="0 0 158 153">
  <defs>
    <clipPath id="clip-path">
      <rect id="Rectangle_4279" data-name="Rectangle 4279" width="100.903" height="73.823"/>
    </clipPath>
  </defs>
  <g id="Ellipse_20" data-name="Ellipse 20" fill="#fff" stroke="#707070" stroke-width="1">
    <ellipse cx="79" cy="76.5" rx="79" ry="76.5" stroke="none"/>
    <ellipse cx="79" cy="76.5" rx="78.5" ry="76" fill="none"/>
  </g>
  <g id="Groupe_6348" data-name="Groupe 6348" transform="translate(-887.451 47.589)">
    <g id="Groupe_6342" data-name="Groupe 6342" transform="translate(916 -8)" clip-path="url(#clip-path)">
      <path id="Tracé_3510" data-name="Tracé 3510" d="M29.306,62.322h35.12A10.9,10.9,0,0,1,75.059,52.057c5.688,0,10.636,4.825,10.636,10.265h4.328v-.866a20.428,20.428,0,0,0-.989-6.306l-.618-1.734c-.989-2.594-2.6-3.957-6.8-4.946l-6.18-1.36a18.362,18.362,0,0,1-5.319-2.1A51.778,51.778,0,0,0,57.131,38.58C52.182,36.973,42.17,36.6,33.386,36.6c-5.314,0-11.375.371-17.063.742l-6.182-3.338V32.522c4.946-.371,17.434-1.113,24.608-1.113,8.037,0,19.165.495,24.6,2.349,6.429,2.226,10.512,5.193,12.864,6.429a17.442,17.442,0,0,0,3.707,1.607l6.182,1.484c4.08.989,7.295,2.1,9.028,4.328a22.724,22.724,0,0,1,4.2,12c0,6.059-1.731,7.913-6.306,7.913h-4.2a10.72,10.72,0,0,1-19.538,0H28.44a10.76,10.76,0,0,1-9.768,6.306A10.521,10.521,0,0,1,8.41,65.784c-5.688-.247-8.41-2.1-8.41-8.9V46.246A68.256,68.256,0,0,1,8.16,37.1l4.7,2.6a82.3,82.3,0,0,0-7.79,8.284v9.276c0,2.6.989,3.215,3.215,3.215a10.929,10.929,0,0,1,10.386-8.41c5.688,0,10.633,4.825,10.633,10.265m-5.067.618a5.57,5.57,0,1,0-11.13,0,5.422,5.422,0,0,0,5.564,5.688,5.424,5.424,0,0,0,5.567-5.688M59.851,10.758C60.1,2.845,66.9,0,78.524,0,91.259,0,100.9,2.968,100.9,11.129v4.328c0,7.668-9.644,11.128-22.379,11.128-11.872,0-18.673-3.338-18.673-10.757H42.17V10.758Zm36.106,4.575v-4.2c0-4.328-7.666-6.182-17.434-6.182-8.781,0-13.6,1.36-13.6,6.182v4.2c0,4.577,4.822,6.306,13.477,6.306,10.018,0,17.56-2.1,17.56-6.306M80.623,62.94a5.569,5.569,0,1,0-11.128,0,5.565,5.565,0,1,0,11.128,0M87.3,9.769a3.762,3.762,0,0,1,3.707,3.462A3.762,3.762,0,0,1,87.3,16.693a3.153,3.153,0,0,1-3.341-3.462A3.153,3.153,0,0,1,87.3,9.769" transform="translate(0 0.002)"/>
    </g>
  </g>
</svg>
