<svg width="127" height="17" viewBox="0 0 127 17" fill="none" xmlns="http://www.w3.org/2000/svg">
<path opacity="0.34" d="M126.291 9.21198C126.291 12.894 98.383 16.927 63.958 16.927C29.532 16.927 1.625 12.894 1.625 9.21198C1.625 5.52998 29.533 2.54498 63.958 2.54498C98.384 2.54498 126.291 5.52998 126.291 9.21198Z" fill="#1E241E"/>
<path d="M124.666 7.57397C124.666 11.256 96.758 14.241 62.333 14.241C27.907 14.241 0 11.256 0 7.57397C0 3.89197 27.908 0.906982 62.333 0.906982C96.759 0.906982 124.666 3.89197 124.666 7.57397Z" fill="#0E0F0E"/>
<path d="M82.416 7.57397C82.416 8.35597 73.424 8.99097 62.333 8.99097C51.241 8.99097 42.25 8.35697 42.25 7.57397C42.25 6.79097 51.242 6.15698 62.333 6.15698C73.425 6.15698 82.416 6.79097 82.416 7.57397Z" fill="#E6E7DA"/>
<path d="M62.333 4.09094C61.906 4.09094 61.556 4.44095 61.556 4.86795V7.57394H63.11V4.86795C63.11 4.43995 62.76 4.09094 62.333 4.09094Z" fill="#A6A49C"/>
</svg>
