<svg width="27" height="27" viewBox="0 0 27 27" fill="none" xmlns="http://www.w3.org/2000/svg">
<rect x="1" y="14" width="5" height="7" rx="2.5" fill="#CDC1FF" stroke="black" stroke-width="2"/>
<path d="M14 2H13C9.13401 2 6 5.13401 6 9V14" stroke="#666666" stroke-width="3"/>
<path d="M7 13V11.5C7 7.91015 9.91015 5 13.5 5" stroke="#666666"/>
<rect x="2.5" y="13.5" width="6" height="8" rx="3" fill="#605BFF" stroke="black" stroke-width="3"/>
<path d="M14 6.57239C11 6.57239 11 2.57239 11 2.57239V1" stroke="black" stroke-width="2"/>
<path d="M14 6.57239V26" stroke="black" stroke-width="2"/>
<path d="M9 26H14H19" stroke="black" stroke-width="2"/>
<path d="M14 6.57239C17 6.57239 17 2.57239 17 2.57239V1" stroke="black" stroke-width="2"/>
<path d="M14 2C17.866 2 21 5.13401 21 9V14" stroke="#666666" stroke-width="3"/>
<path d="M20 13V11.5C20 7.91015 17.0899 5 13.5 5" stroke="#666666"/>
<rect x="18.5" y="13.5" width="6" height="8" rx="3" fill="#CDC1FF" stroke="black" stroke-width="3"/>
<rect x="21" y="14" width="5" height="7" rx="2.5" fill="#00BBFF" stroke="black" stroke-width="2"/>
</svg>
