<svg xmlns="http://www.w3.org/2000/svg" xmlns:xlink="http://www.w3.org/1999/xlink" width="160" height="160" viewBox="0 0 160 160"><defs><clipPath id="a"><rect width="51.668" height="48.001"/></clipPath></defs><rect width="160" height="160" rx="80" fill="#fff"/><g transform="translate(54.166 56)"><g clip-path="url(#a)"><path d="M9.488,0A6.085,6.085,0,0,0,5.9,3.907C3.907,9.648,2.073,15.309,0,20.971L.08,40.9v3.11A4,4,0,0,0,4.067,48a3.948,3.948,0,0,0,3.987-3.987v-3.03H43.615v3.03A3.948,3.948,0,0,0,47.6,48a4,4,0,0,0,3.987-3.987V40.9l.08-19.934c-2.073-5.661-3.987-11.322-5.9-17.063A6.085,6.085,0,0,0,42.18,0ZM5.741,17.861l4.7-13.4h30.7l4.784,13.4Zm36.04,5.582a4.543,4.543,0,0,0-4.545,4.545,4.6,4.6,0,0,0,4.545,4.545,4.543,4.543,0,0,0,4.545-4.545,4.493,4.493,0,0,0-4.545-4.545m-31.974,0a4.493,4.493,0,0,1,4.545,4.545,4.543,4.543,0,0,1-4.545,4.545,4.6,4.6,0,0,1-4.545-4.545,4.543,4.543,0,0,1,4.545-4.545" fill-rule="evenodd"/></g></g></svg>