<svg xmlns="http://www.w3.org/2000/svg" width="160" height="160" viewBox="0 0 160 160"><rect width="160" height="160" rx="80" fill="#fff"/><path d="M1.216,9.849H7.041C10.022,18.932,18.2,24.965,28.606,24.965a22.5,22.5,0,0,0,16.572-6.726l-4.368-5.478a17.3,17.3,0,0,1-12.412,5.2A13.819,13.819,0,0,1,15.292,9.849H28.675l1.387-5.478H13.836c-.069-.763-.139-1.525-.139-2.288s.069-1.525.139-2.288H31.31l1.456-5.478H15.292A13.819,13.819,0,0,1,28.4-13.8,17.3,17.3,0,0,1,40.809-8.6l4.368-5.478A22.5,22.5,0,0,0,28.606-20.8c-10.4,0-18.583,6.033-21.565,15.116H1.216V-.206H5.931c-.069.763-.069,1.525-.069,2.288s0,1.525.069,2.288H1.216Z" transform="translate(52.804 75.8)" fill="#020101"/></svg>