<svg width="100" height="300" viewBox="0 0 100 300" fill="none" xmlns="http://www.w3.org/2000/svg">
<g filter="url(#filter0_i_10_1620)">
<path d="M30 294.56C30 289.922 32.1658 285.501 35.9586 282.397L50 270.909L64.0414 282.397C67.8342 285.501 70 289.922 70 294.56V296.364H30V294.56Z" fill="#666666"/>
<path d="M50 270.909L35.9586 282.397C32.1658 285.501 30 289.922 30 294.56V296.364H70V294.56C70 289.922 67.8342 285.501 64.0414 282.397L50 270.909ZM50 270.909V87.2727" stroke="black" stroke-width="4"/>
<path d="M66 120H70H74V132.727H66V120Z" fill="#666666"/>
<path d="M70 87.2727V120M70 120H66V132.727H74V120H70Z" stroke="black" stroke-width="2"/>
<path d="M22 3.63635H78L94 87.2727H6L22 3.63635Z" fill="#FFC700" stroke="black" stroke-width="4"/>
</g>
<defs>
<filter id="filter0_i_10_1620" x="0" y="0" width="100" height="304" filterUnits="userSpaceOnUse" color-interpolation-filters="sRGB">
<feFlood flood-opacity="0" result="BackgroundImageFix"/>
<feBlend mode="normal" in="SourceGraphic" in2="BackgroundImageFix" result="shape"/>
<feColorMatrix in="SourceAlpha" type="matrix" values="0 0 0 0 0 0 0 0 0 0 0 0 0 0 0 0 0 0 127 0" result="hardAlpha"/>
<feOffset dy="4"/>
<feGaussianBlur stdDeviation="2"/>
<feComposite in2="hardAlpha" operator="arithmetic" k2="-1" k3="1"/>
<feColorMatrix type="matrix" values="0 0 0 0 0 0 0 0 0 0 0 0 0 0 0 0 0 0 0.25 0"/>
<feBlend mode="normal" in2="shape" result="effect1_innerShadow_10_1620"/>
</filter>
</defs>
</svg>
