<svg width="146" height="45" viewBox="0 0 146 45" fill="none" xmlns="http://www.w3.org/2000/svg">
<path d="M140.999 44.385H5.33301C2.58301 44.385 0.333008 42.135 0.333008 39.385V30.24C0.333008 27.49 2.58301 25.24 5.33301 25.24H141C143.75 25.24 146 27.49 146 30.24V39.385C145.999 42.135 143.749 44.385 140.999 44.385Z" fill="#1E241E"/>
<path d="M144.282 26.68L2.04999 26.302L16.017 16.719H134.017L144.282 26.68Z" fill="#554233"/>
<path d="M23.499 34.945C24.3733 34.945 25.082 34.2363 25.082 33.362C25.082 32.4877 24.3733 31.779 23.499 31.779C22.6248 31.779 21.916 32.4877 21.916 33.362C21.916 34.2363 22.6248 34.945 23.499 34.945Z" fill="#A6CBC5"/>
<path d="M37.749 34.945C38.6233 34.945 39.332 34.2363 39.332 33.362C39.332 32.4877 38.6233 31.779 37.749 31.779C36.8748 31.779 36.166 32.4877 36.166 33.362C36.166 34.2363 36.8748 34.945 37.749 34.945Z" fill="#A6CBC5"/>
<path d="M51.333 34.945C52.2073 34.945 52.916 34.2363 52.916 33.362C52.916 32.4877 52.2073 31.779 51.333 31.779C50.4587 31.779 49.75 32.4877 49.75 33.362C49.75 34.2363 50.4587 34.945 51.333 34.945Z" fill="#A6CBC5"/>
<path d="M119.293 0H107.043V4.75H119.293V0Z" fill="#1E241E"/>
<path d="M116.543 4.75H111.543V19.5H116.543V4.75Z" fill="#1E241E"/>
</svg>
