<svg xmlns="http://www.w3.org/2000/svg" width="24.815" height="24.818" viewBox="0 0 24.815 24.818"><path d="M-11518.183,26.818h-.816a11.927,11.927,0,0,1-8.486-3.515,11.922,11.922,0,0,1-3.515-8.486V14a11.922,11.922,0,0,1,3.515-8.486A11.927,11.927,0,0,1-11519,2h.816a11.917,11.917,0,0,1,8.484,3.515,11.926,11.926,0,0,1,3.514,8.486v.816a11.926,11.926,0,0,1-3.514,8.486A11.917,11.917,0,0,1-11518.183,26.818Zm-4.214-18.254a.361.361,0,0,0-.258.106l-1.676,1.676a.372.372,0,0,0-.083.388.388.388,0,0,0,.083.13l3.546,3.545-3.546,3.545a.374.374,0,0,0-.083.13.372.372,0,0,0,.083.388l1.676,1.673a.354.354,0,0,0,.255.108.367.367,0,0,0,.13-.024.322.322,0,0,0,.131-.084l3.548-3.545,3.545,3.545a.345.345,0,0,0,.13.084.4.4,0,0,0,.131.023.348.348,0,0,0,.254-.107l1.676-1.673a.366.366,0,0,0,.084-.388.355.355,0,0,0-.084-.13l-3.545-3.545,3.545-3.545a.358.358,0,0,0,.084-.13.366.366,0,0,0-.084-.388l-1.676-1.676a.36.36,0,0,0-.257-.106.38.38,0,0,0-.128.022.432.432,0,0,0-.13.084l-3.545,3.548-3.548-3.548a.408.408,0,0,0-.131-.084A.378.378,0,0,0-11522.4,8.564Z" transform="translate(11531 -2)"/></svg>